<svg xmlns="http://www.w3.org/2000/svg" viewBox="0 0 512 512" width="512" height="512" role="img" aria-label="MergePilot">
  <defs>
    <linearGradient id="background" x1="96" y1="54" x2="424" y2="458" gradientUnits="userSpaceOnUse">
      <stop offset="0" stop-color="#294F78"/>
      <stop offset="0.52" stop-color="#1E3A5F"/>
      <stop offset="1" stop-color="#142B49"/>
    </linearGradient>
    <linearGradient id="mark" x1="132" y1="140" x2="390" y2="334" gradientUnits="userSpaceOnUse">
      <stop offset="0" stop-color="#A5F0DF"/>
      <stop offset="0.46" stop-color="#70DEC5"/>
      <stop offset="1" stop-color="#48C6AE"/>
    </linearGradient>
    <filter id="mark-shadow" x="-20%" y="-20%" width="140%" height="140%">
      <feDropShadow dx="0" dy="7" stdDeviation="8" flood-color="#07182B" flood-opacity="0.24"/>
    </filter>
  </defs>

  <path
    d="M142 24h228c72 0 118 46 118 118v228c0 72-46 118-118 118H142C70 488 24 442 24 370V142C24 70 70 24 142 24Z"
    fill="url(#background)"
  />
  <path
    d="M142 38h228c61 0 104 38 104 100"
    fill="none"
    stroke="#FFFFFF"
    stroke-width="5"
    stroke-linecap="round"
    opacity="0.12"
  />

  <g fill="none" stroke="url(#mark)" stroke-width="30" stroke-linecap="round" stroke-linejoin="round" filter="url(#mark-shadow)">
    <path d="M146 166v20c0 40 30 70 74 70h83"/>
    <path d="M146 346v-20c0-40 30-70 74-70h83"/>
  </g>

  <g filter="url(#mark-shadow)">
    <circle cx="146" cy="152" r="28" fill="url(#mark)"/>
    <circle cx="146" cy="360" r="28" fill="url(#mark)"/>
    <circle cx="146" cy="152" r="8" fill="#E6FFF9" opacity="0.9"/>
    <circle cx="146" cy="360" r="8" fill="#E6FFF9" opacity="0.9"/>
    <path d="M274 224h49v-30c0-10 12-15 19-8l66 61c6 5 6 13 0 18l-66 61c-7 7-19 2-19-8v-30h-49Z" fill="url(#mark)"/>
  </g>
</svg>
